<svg version="1.1" id="Layer_1" xmlns="http://www.w3.org/2000/svg" xmlns:xlink="http://www.w3.org/1999/xlink" x="0px" y="0px"
	 width="100%" viewBox="0 0 180 180" enable-background="new 0 0 180 180" xml:space="preserve">
<path fill="#2E93FF" opacity="1.000000" stroke="none" 
	d="
M89.000000,0.999999 
	C92.361671,1.000000 95.723335,1.000000 99.203445,1.268793 
	C100.230415,2.197768 101.048523,3.093434 102.061234,3.482372 
	C114.749725,8.355466 127.389824,13.370981 140.196655,17.915056 
	C153.901657,22.777826 155.000015,24.005650 155.000015,38.611012 
	C155.000000,75.251427 155.006592,111.891846 154.994629,148.532257 
	C154.992111,156.254242 152.117233,160.318008 145.038742,162.964630 
	C130.793320,168.290878 116.557205,173.642349 102.348099,179.064240 
	C101.740921,179.295914 101.442345,180.336334 101.000000,181.000000 
	C96.974495,181.000000 92.948997,181.000000 88.799332,180.740784 
	C84.250259,177.176468 82.985603,172.545258 82.987740,167.295456 
	C83.008224,116.826508 82.987312,66.357552 83.018150,15.888617 
	C83.021515,10.381287 83.664925,5.053647 89.276527,2.004473 
	C89.345825,1.966817 89.099174,1.347703 89.000000,0.999999 
M101.336983,89.163521 
	C100.759865,95.100327 102.795692,98.143188 108.300102,100.099785 
	C112.431549,101.568352 115.714973,100.047997 117.916306,96.912506 
	C121.690613,91.536560 120.372055,86.019356 115.143089,83.036415 
	C109.867393,80.026817 104.849480,82.121849 101.336983,89.163521 
z"/>
<path fill="#000000" opacity="1.000000" stroke="none" 
	d="
M88.531342,0.999999 
	C89.099174,1.347703 89.345825,1.966817 89.276527,2.004473 
	C83.664925,5.053647 83.021515,10.381287 83.018150,15.888617 
	C82.987312,66.357552 83.008224,116.826508 82.987740,167.295456 
	C82.985603,172.545258 84.250259,177.176468 88.337585,180.740784 
	C59.035770,181.000000 30.071541,181.000000 1.053655,181.000000 
	C1.053655,121.109818 1.053655,61.219578 1.053655,1.000000 
	C30.020063,1.000000 59.041374,1.000000 88.531342,0.999999 
M67.777725,26.378263 
	C65.566887,20.667305 61.254353,18.655525 55.350334,18.952961 
	C50.701057,19.187185 46.004269,19.317692 41.374889,18.934637 
	C31.378458,18.107491 28.193066,23.917774 28.133005,32.106438 
	C27.842432,71.723434 27.951506,111.343857 28.047167,150.962753 
	C28.065109,158.394226 30.333799,162.236603 36.824371,163.107361 
	C44.427540,164.127396 52.317326,164.036148 59.972492,163.292160 
	C65.300865,162.774292 67.989120,158.395309 67.989548,153.069885 
	C67.992905,111.120476 67.969849,69.171066 67.777725,26.378263 
z"/>
<path fill="#000000" opacity="1.000000" stroke="none" 
	d="
M101.468658,181.000000 
	C101.442345,180.336334 101.740921,179.295914 102.348099,179.064240 
	C116.557205,173.642349 130.793320,168.290878 145.038742,162.964630 
	C152.117233,160.318008 154.992111,156.254242 154.994629,148.532257 
	C155.006592,111.891846 155.000000,75.251427 155.000015,38.611012 
	C155.000015,24.005650 153.901657,22.777826 140.196655,17.915056 
	C127.389824,13.370981 114.749725,8.355466 102.061234,3.482372 
	C101.048523,3.093434 100.230415,2.197768 99.660934,1.268793 
	C126.965317,1.000000 153.930634,1.000000 180.947968,1.000000 
	C180.947968,60.888206 180.947968,120.776466 180.947968,181.000000 
	C154.646713,181.000000 128.292023,181.000000 101.468658,181.000000 
z"/>
<path fill="#000000" opacity="1.000000" stroke="none" 
	d="
M101.606567,88.869507 
	C104.849480,82.121849 109.867393,80.026817 115.143089,83.036415 
	C120.372055,86.019356 121.690613,91.536560 117.916306,96.912506 
	C115.714973,100.047997 112.431549,101.568352 108.300102,100.099785 
	C102.795692,98.143188 100.759865,95.100327 101.606567,88.869507 
z"/>
<path fill="#2A68C5" opacity="1.000000" stroke="none" 
	d="
M67.866325,26.799961 
	C67.969849,69.171066 67.992905,111.120476 67.989548,153.069885 
	C67.989120,158.395309 65.300865,162.774292 59.972492,163.292160 
	C52.317326,164.036148 44.427540,164.127396 36.824371,163.107361 
	C30.333799,162.236603 28.065109,158.394226 28.047167,150.962753 
	C27.951506,111.343857 27.842432,71.723434 28.133005,32.106438 
	C28.193066,23.917774 31.378458,18.107491 41.374889,18.934637 
	C46.004269,19.317692 50.701057,19.187185 55.350334,18.952961 
	C61.254353,18.655525 65.566887,20.667305 67.866325,26.799961 
z"/>
</svg>